<svg xmlns="http://www.w3.org/2000/svg" width="553" height="153" viewBox="0 0 553 153" fill="none"> <path d="M279.791 8.10547H290.676V40.0187H327.749V8.10547H340.289V84.4528H327.749V52.5524H290.676V84.4528H278.136V20.83C273.748 21.242 269.672 23.2755 266.705 26.5326C263.738 29.7897 262.094 34.0361 262.095 38.4408C262.087 40.7647 262.541 43.067 263.431 45.2141C264.32 47.3613 265.627 49.3106 267.276 50.9491L258.275 59.9454C255.438 57.1298 253.19 53.7788 251.66 50.0871C250.13 46.3954 249.349 42.4366 249.363 38.4408C249.362 30.6616 252.344 23.1778 257.696 17.53C263.049 11.8821 270.364 8.50014 278.136 8.08008C278.136 8.08008 278.963 8.10547 279.791 8.10547Z" fill="white"/> <path d="M400.429 59.093C400.429 74.3625 388.971 85.5602 373.439 85.5602C357.907 85.5602 346.449 74.3625 346.449 59.093C346.449 43.8236 357.907 32.626 373.439 32.626C388.971 32.626 400.429 43.8236 400.429 59.093ZM359.18 59.093C359.18 68.2547 364.884 74.3625 373.439 74.3625C381.994 74.3625 387.698 68.2547 387.698 59.093C387.698 49.9314 381.994 43.8236 373.439 43.8236C364.884 43.8236 359.168 49.9314 359.168 59.093H359.18Z" fill="white"/> <path d="M406.578 33.6436H431.735C441.219 33.6436 447.941 37.919 447.941 46.7753C448.063 49.1504 447.455 51.5059 446.199 53.5257C444.943 55.5454 443.099 57.1328 440.914 58.0747C447.025 59.8052 450.284 63.7753 450.284 70.1885C450.284 79.452 443.46 84.5418 434.077 84.5418H406.578V33.6436ZM418.393 43.3143V54.0028H430.462C434.281 54.0028 436.369 52.1705 436.369 48.7095C436.369 45.2484 434.332 43.3143 430.462 43.3143H418.393ZM438.062 69.2723C438.062 65.6076 435.821 63.5717 431.697 63.5717H418.354V74.7693H431.735C435.821 74.7693 438.1 72.937 438.1 69.2723H438.062Z" fill="white"/> <path d="M488.926 77.2509C486.979 79.8894 484.428 82.0238 481.487 83.476C478.546 84.9281 475.3 85.6558 472.02 85.5982C462.751 85.5982 455.469 80.2029 455.469 70.5323C455.469 60.149 463.923 55.8736 474.82 53.6341L488.468 50.8856C487.45 45.185 483.681 42.9454 477.978 42.9454C471.612 42.9454 467.793 45.694 466.52 50.9874L455.316 48.8497C456.844 39.4844 465.298 32.6641 478.843 32.6641C492.186 32.6641 500.486 40.197 500.486 52.3108V84.5802H489.69L488.926 77.2509ZM474.158 75.4185C481.288 75.4185 488.723 70.8377 488.723 61.2688V59.9964L475.279 63.0503C470.695 64.0683 467.844 65.7988 467.844 69.7688C467.844 73.4335 470.288 75.3804 474.158 75.3804V75.4185Z" fill="white"/> <path d="M523.909 33.6436H550.644V84.5418H538.931V66.6256H530.478L517.951 84.5418H504.914L518.154 65.6076C510.719 63.4699 506.034 58.1765 506.034 50.1346C506.085 40.2603 513.215 33.6436 523.909 33.6436ZM538.982 56.7514V43.5178H525.742C520.752 43.5178 518.103 45.7574 518.103 50.1346C518.103 54.5118 520.752 56.7514 525.742 56.7514H538.982Z" fill="white"/> <path d="M272.406 101.084H284.628V141.294H300.924V101.084H313.146V141.294H329.442V101.084H341.663V151.982H272.406V101.084Z" fill="white"/> <path d="M363.14 101.084V119.815H368.64L383.51 101.084H398.087L378.264 125.006L399.054 151.982H384.274L368.487 131.623H363.089V151.982H350.867V101.084H363.14Z" fill="white"/> <path d="M451.356 126.533C451.356 141.802 439.898 153 424.366 153C408.834 153 397.363 141.802 397.363 126.533C397.363 111.264 408.821 100.066 424.366 100.066C439.911 100.066 451.356 111.264 451.356 126.533ZM410.094 126.533C410.094 135.695 415.811 141.802 424.366 141.802C432.921 141.802 438.625 135.695 438.625 126.533C438.625 117.371 432.921 111.264 424.366 111.264C415.811 111.264 410.094 117.371 410.094 126.533Z" fill="white"/> <path d="M453.736 141.803C458.523 141.803 460.101 139.767 460.865 118.593L461.578 101.084H501.197V151.982H489.026V111.773H473.444L473.036 121.24C472.018 145.416 467.944 153.051 455.62 153.051C453.856 153.062 452.102 152.787 450.426 152.237L451.852 141.65C452.474 141.759 453.104 141.81 453.736 141.803Z" fill="white"/> <path d="M541.376 144.691C539.428 147.329 536.877 149.464 533.936 150.916C530.995 152.368 527.749 153.096 524.469 153.038C515.201 153.038 507.918 147.643 507.918 137.972C507.918 127.589 516.372 123.314 527.27 121.074L540.917 118.326C539.899 112.625 536.131 110.385 530.427 110.385C524.061 110.385 520.242 113.134 518.969 118.427L507.766 116.29C509.293 106.924 517.747 100.104 531.293 100.104C544.635 100.104 552.935 107.637 552.935 119.751V152.02H542.14L541.376 144.691ZM526.608 142.858C533.737 142.858 541.172 138.278 541.172 128.709V127.436L527.728 130.49C523.145 131.508 520.293 133.239 520.293 137.209C520.293 140.873 522.737 142.82 526.608 142.82V142.858Z" fill="white"/> <path d="M199.253 43.7725C168.979 13.5008 136.387 0 93.5852 0C81.2931 0.00167028 69.1218 2.42364 57.7664 7.1275C46.411 11.8314 36.0939 18.725 27.4045 27.4147C18.715 36.1044 11.8235 46.4199 7.12338 57.7721C2.42328 69.1242 0.00670999 81.2907 0.0117265 93.5764C0.00838192 101.329 1.5332 109.006 4.49908 116.169C7.46496 123.332 11.8137 129.841 17.2971 135.324C22.7804 140.807 29.2908 145.156 36.4564 148.124C43.6219 151.091 51.3022 152.618 59.0585 152.618C64.0248 152.64 68.9458 151.675 73.5356 149.779C78.1253 147.883 82.2922 145.093 85.7938 141.573C87.5317 139.833 89.0964 137.928 90.466 135.886V151.982H96.8315V6.38775C136.298 7.04943 166.598 20.0412 194.861 48.2642C221.1 74.5022 236.772 113.274 236.772 151.982H243.137C243.023 111.607 226.663 71.1812 199.253 43.7725ZM31.9031 31.9005C47.4471 16.2862 68.3639 7.18469 90.3897 6.45136V90.4334H6.44091C7.15536 68.3923 16.263 47.4555 31.9031 31.9005ZM81.2106 137.056C78.3084 139.978 74.8547 142.294 71.0498 143.871C67.245 145.448 63.1648 146.255 59.0457 146.243C45.6352 146.22 32.7377 141.089 22.9789 131.895C13.22 122.702 7.33337 110.136 6.51729 96.7575H61.1592C58.1146 98.4189 55.696 101.028 54.2708 104.189C52.8457 107.35 52.4918 110.889 53.2633 114.27C54.0348 117.65 55.8892 120.686 58.5449 122.916C61.2005 125.147 64.5121 126.449 67.9763 126.627C71.4405 126.804 74.868 125.846 77.7377 123.899C80.6074 121.951 82.7626 119.121 83.8756 115.837C84.9885 112.553 84.9986 108.996 83.904 105.706C82.8094 102.416 80.6701 99.5737 77.8114 97.6101C81.4724 98.7851 84.6656 101.092 86.9307 104.197C89.1959 107.303 90.4159 111.047 90.4152 114.89C90.4236 119.01 89.6144 123.09 88.0345 126.895C86.4545 130.699 84.1351 134.153 81.2106 137.056Z" fill="white"/> </svg>