<svg xmlns="http://www.w3.org/2000/svg" fill-rule="evenodd" viewBox="0 0 100 100">
    <path d="M39.795 49.002c0-6.446-3.314-12.119-8.331-15.406l37.07.002c-5.016 3.288-8.329 8.959-8.329 15.404 0 10.165 8.24 18.406 18.406 18.406 10.165 0 18.406-8.24 18.406-18.406 0-10.165-8.24-18.406-18.406-18.406-.092 0-.183 0-.275.002l-56.948-.003-.057.001c-10.139.032-18.348 8.26-18.348 18.406 0 10.165 8.24 18.406 18.406 18.406 10.165 0 18.406-8.24 18.406-18.406ZM78.36 33.598h.25c.025 0 .05 0 .075-.002 8.474.04 15.332 6.922 15.332 15.406 0 8.509-6.897 15.406-15.406 15.406-8.508 0-15.406-6.897-15.406-15.406 0-8.424 6.762-15.27 15.155-15.404Zm-56.971-.002c-8.508 0-15.406 6.898-15.406 15.406 0 8.509 6.897 15.406 15.406 15.406s15.406-6.897 15.406-15.406c0-8.508-6.898-15.406-15.406-15.406Z"/>
</svg>